<?xml version="1.0" encoding="utf-8"?>
<!-- Generator: Adobe Illustrator 16.0.0, SVG Export Plug-In . SVG Version: 6.00 Build 0)  -->
<!DOCTYPE svg PUBLIC "-//W3C//DTD SVG 1.1//EN" "http://www.w3.org/Graphics/SVG/1.1/DTD/svg11.dtd">
<svg version="1.1" id="Layer_1" xmlns="http://www.w3.org/2000/svg" xmlns:xlink="http://www.w3.org/1999/xlink" x="0px" y="0px"
	 width="1400px" height="1568px" viewBox="0 0 1400 1568" enable-background="new 0 0 1400 1568" xml:space="preserve">
<g>
	<polygon fill="#95B5B5" points="908.4,138.7 886.8,147.7 858.2,121.9 351.6,579.7 428.3,649.4 434.8,677.7 463.7,703.9 
		346.8,708.1 395.9,752.7 290.2,891.4 313.3,912.3 279.8,917.1 307.6,942.3 293.1,1003.6 219.5,1071.1 257.7,1105.7 212,1207.5 
		298.4,1285.9 298.4,1313.5 1400,1313.5 1400,583.5 	"/>
	<polygon fill="#A5C9C9" points="298.4,1285.9 212,1207.5 257.7,1105.7 219.5,1071.1 293.1,1003.6 307.6,942.3 279.8,917.1 
		313.3,912.3 290.2,891.4 395.9,752.7 346.8,708.1 463.7,703.9 434.8,677.7 428.3,649.4 351.6,579.7 858.2,121.9 886.8,147.7 
		908.4,138.7 1400,583.5 1400,0 0,0 0,1313.5 298.4,1313.5 	"/>
	<polygon fill="#756D44" points="298.4,1313.5 0,1313.5 0,1568 1400,1568 1400,1313.5 	"/>
	<g>
		<path fill="#FF6954" d="M495,638.1v-4.5c0-29.7,24.1-53.8,53.8-53.8h-77.2c-29.7,0-53.8,24.1-53.8,53.8v4.5
			c0,29.7,24.1,53.8,53.8,53.8h77.2C519.1,692,495,667.9,495,638.1z"/>
		<path fill="#EB614C" d="M548.8,692h316.5h15.1h11.8h4.5v-0.2v-9.9V674h-16.3H548.8c-19.8,0-35.9-16.1-35.9-35.9v-4.5
			c0-19.8,16.1-35.9,35.9-35.9h331.6h16.3V590V580v-0.2h-4.5h-11.8h-15.1H548.8c-29.7,0-53.8,24.1-53.8,53.8v4.5
			C495,667.9,519.1,692,548.8,692z"/>
	</g>
	<g>
		<path fill="#E6E7E8" d="M880.5,608.8v-11.1H548.8c-11.2,0-21.1,5.1-27.7,13.2h359.3V608.8z"/>
		<path fill="#FFFFFF" d="M521.1,610.9c-2.7,3.3-4.9,7.2-6.3,11.4c-1.2,3.6-1.9,7.4-1.9,11.3v4.5c0,19.8,16.1,35.9,35.9,35.9h331.6
			v-63.1H521.1z"/>
	</g>
	<path fill="#665F3B" d="M1281.2,1441.6c0,20.1-16.3,36.5-36.5,36.5H797.5c-20.2,0-36.5-16.3-36.5-36.5v-6.1
		c0-20.2,16.3-36.5,36.5-36.5h447.2c20.1,0,36.5,16.3,36.5,36.5V1441.6z"/>
	<path fill="#665F3B" d="M1220.2,1392.1c0-11.7-9.5-21.2-21.2-21.2H226.4c-11.7,0-21.2,9.5-21.2,21.2l0,0c0,11.7,9.5,21.2,21.2,21.2
		H1199C1210.7,1413.3,1220.2,1403.8,1220.2,1392.1L1220.2,1392.1z"/>
	<path fill="#EB9D3F" d="M767.2,1216.2h-21.6h-31.9h-63c23.9,0,43.2,19.4,43.2,43.2v10.8c0,23.9-19.4,43.2-43.2,43.2h63h31.9h21.6
		c23.9,0,43.2-19.4,43.2-43.2v-10.8C810.5,1235.5,791.1,1216.2,767.2,1216.2z"/>
	<path fill="#FFAB44" d="M650.8,1216.2H298.9h-12.2h-9.5h-3.6v0.2v8v6.2h13.1h364.1c15.9,0,28.8,12.9,28.8,28.8v10.8
		c0,15.9-12.9,28.8-28.8,28.8H286.7h-13.1v6.2v8v0.2h3.6h9.5h12.2h351.9c23.9,0,43.2-19.4,43.2-43.2v-10.8
		C694,1235.5,674.6,1216.2,650.8,1216.2z"/>
	<path fill="#9C7696" d="M293.1,1180.9v-63.5c0-19.4,15.9-35.3,35.3-35.3h-93.5c-19.4,0-35.3,15.9-35.3,35.3v63.5
		c0,19.4,15.9,35.3,35.3,35.3h93.5C309,1216.2,293.1,1200.3,293.1,1180.9z"/>
	<path fill="#8C6A87" d="M590.6,1082.1H328.4c-19.4,0-35.3,15.9-35.3,35.3v63.5c0,19.4,15.9,35.3,35.3,35.3h262.2h63.6v-3.9v-10.2
		h-12.1h-23.5H328.4c-11.7,0-21.2-9.5-21.2-21.2v-63.5c0-11.7,9.5-21.2,21.2-21.2h290.2h23.5h12.1V1086v-3.9H590.6z"/>
	<path fill="#FFE175" d="M397.1,836.5c0-39.1,31.7-70.9,70.9-70.9h-133c-39.1,0-70.9,31.7-70.9,70.9c0,39.1,31.7,70.9,70.9,70.9h133
		C428.8,907.3,397.1,875.6,397.1,836.5z"/>
	<path fill="#F0D46E" d="M467.9,786.3h127.7h243.6h1.7v-20.7H545.5h-77.6c-39.1,0-70.9,31.7-70.9,70.9c0,39.1,31.7,70.9,70.9,70.9
		h77.6h295.4v-20.7h-1.7H595.6H467.9c-27.6,0-50.1-22.5-50.1-50.1C417.8,808.8,440.3,786.3,467.9,786.3z"/>
	<g>
		<path fill="#00748C" d="M908.1,692h-97.2c20.3,0,36.8,16.5,36.8,36.8c0,20.3-16.5,36.8-36.8,36.8h97.2c20.3,0,36.8-16.5,36.8-36.8
			C944.9,708.4,928.4,692,908.1,692z"/>
		<path fill="#00819C" d="M810.9,692H444h-80.1h-17.1v16.2h17.1H444h366.9c11.4,0,20.6,9.3,20.6,20.6c0,11.4-9.3,20.6-20.6,20.6H444
			h-80.1h-17.1v16.2h17.1H444h366.9c20.3,0,36.8-16.5,36.8-36.8C847.7,708.4,831.2,692,810.9,692z"/>
	</g>
	<path fill="#0091B0" d="M366.5,1313.5h97.2c-20.3,0-36.8,16.5-36.8,36.8c0,20.3,16.5,36.8,36.8,36.8h-97.2
		c-20.3,0-36.8-16.5-36.8-36.8C329.7,1329.9,346.2,1313.5,366.5,1313.5z"/>
	<path fill="#00819C" d="M463.7,1313.5h366.9h80.1h17.1v16.2h-17.1h-80.1H463.7c-11.4,0-20.6,9.3-20.6,20.6
		c0,11.4,9.3,20.6,20.6,20.6h366.9h80.1h17.1v16.2h-17.1h-80.1H463.7c-20.3,0-36.8-16.5-36.8-36.8
		C426.9,1329.9,443.4,1313.5,463.7,1313.5z"/>
	<polygon fill="#70A15C" points="770.5,907.3 279.8,907.3 279.8,917.1 770.5,917.1 770.5,982.3 279.8,982.3 279.8,992.1 
		770.5,992.1 812.5,992.1 812.5,907.3 	"/>
	<path fill="#70A15C" d="M702.6,209.6v286.1v18V529v24.6c0,10.7-5.1,20.1-12.9,26.2c-5.6,4.3-12.6,6.9-20.2,6.9
		c-7.6,0-14.6-2.6-20.2-6.9c-7.8-6.1-12.9-15.5-12.9-26.2V529v-15.2v-18V209.6H351.6v370.1h285.8c3.7,14.3,16.6,24.9,32.1,24.9
		c15.5,0,28.4-10.6,32.1-24.9h285.8V209.6H702.6z"/>
	<path fill="#3C7D22" d="M636.3,209.6v286.1v18V529v24.6c0,10.7,5.1,20.1,12.9,26.2c5.6,4.3,12.6,6.9,20.2,6.9
		c7.6,0,14.6-2.6,20.2-6.9c7.8-6.1,12.9-15.5,12.9-26.2V529v-15.2v-18V209.6H636.3z"/>
	<g>
		<g>
			<rect x="367.6" y="197" fill="#F0F0EE" width="603.8" height="368.1"/>
		</g>
	</g>
	<polygon fill="#FEFEFE" points="669.5,565.1 395.9,542.7 395.9,174.6 669.5,197 	"/>
	<polygon fill="#FEFEFE" points="669.5,565.1 943.1,542.7 943.1,174.6 669.5,197 	"/>
	<polygon fill="#EDEFEE" points="669.5,565.1 908.4,506.8 908.4,138.7 669.5,197 	"/>
	<polygon fill="#FAFAFA" points="669.5,565.1 858.2,490 858.2,121.9 669.5,197 	"/>
	<g>
		<polygon fill="#EBEBEB" points="689.3,236.3 831.9,177.6 831.9,161.7 689.3,220.4 		"/>
		<polygon fill="#EBEBEB" points="689.3,272.7 831.9,214 831.9,198.2 689.3,256.8 		"/>
		<polygon fill="#EBEBEB" points="689.3,309.2 831.9,250.5 831.9,234.6 689.3,293.3 		"/>
		<polygon fill="#EBEBEB" points="689.3,345.6 831.9,286.9 831.9,271.1 689.3,329.8 		"/>
		<polygon fill="#EBEBEB" points="689.3,383.2 780.8,345.1 780.8,329.3 689.3,367.4 		"/>
	</g>
	<g>
		<polygon fill="#F0D46E" points="544.7,515.3 495.2,515.3 495.2,531 544.7,542.6 		"/>
		<polygon fill="#FFE175" points="495.2,531 495.2,596.8 519.9,577.4 544.7,596.8 544.7,542.6 		"/>
	</g>
	<polygon fill="#EDEFEE" points="669.5,565.1 430.5,506.8 430.5,138.7 669.5,197 	"/>
	<polygon fill="#FFFFFF" points="669.5,565.1 480.7,490 480.7,121.9 669.5,197 	"/>
	<g>
		<polygon fill="#EBEBEB" points="649.7,236.3 507,177.6 507,161.7 649.7,220.4 		"/>
		<polygon fill="#EBEBEB" points="649.7,272.7 507,214 507,198.2 649.7,256.8 		"/>
		<polygon fill="#EBEBEB" points="649.7,309.2 507,250.5 507,234.6 649.7,293.3 		"/>
		<polygon fill="#EBEBEB" points="649.7,345.6 507,286.9 507,271.1 649.7,329.8 		"/>
		<polygon fill="#EBEBEB" points="598.5,361.5 507,323.4 507,307.5 598.5,345.6 		"/>
		<polygon fill="#EBEBEB" points="649.7,418.5 507,359.9 507,344 649.7,402.7 		"/>
		<polygon fill="#EBEBEB" points="649.7,455 507,396.3 507,380.4 649.7,439.1 		"/>
		<polygon fill="#EBEBEB" points="582.4,464.4 507,432.8 507,416.9 582.4,448.5 		"/>
		<polygon fill="#EBEBEB" points="621.7,516.6 507,469.2 507,453.4 621.7,500.7 		"/>
	</g>
	<rect x="666.3" y="197" fill="#E6E6E4" width="6.3" height="368.1"/>
	<g>
		<path fill="#E6E7E8" d="M810.9,708.1H444h-80.1v8.4h463.6C823.7,711.5,817.7,708.1,810.9,708.1z"/>
		<path fill="#FFFFFF" d="M363.9,716.5v32.9H444h366.9c11.4,0,20.6-9.3,20.6-20.6c0-4.6-1.5-8.8-4.1-12.2H363.9z"/>
	</g>
	<g>
		<path fill="#FFFFFF" d="M818.4,865.9v-58.8c0-1.3,0.1-2.6,0.4-3.9H430.5c-7.9,8.9-12.7,20.5-12.7,33.3c0,27.6,22.5,50.1,50.1,50.1
			h127.7h243.6C827.7,886.6,818.4,877.3,818.4,865.9z"/>
		<path fill="#E6E7E8" d="M839.1,786.3H595.6H467.9c-14.9,0-28.2,6.5-37.4,16.9h388.3C820.6,793.6,829.1,786.3,839.1,786.3z"/>
	</g>
	<g>
		<rect x="290.2" y="917.1" fill="#E6E7E8" width="480.2" height="14.5"/>
		<rect x="290.2" y="931.6" fill="#FFFFFF" width="480.2" height="50.7"/>
	</g>
	<g>
		<path fill="none" d="M353.3,1009c0.3-0.1,0.5-0.2,0.8-0.3C353.8,1008.7,353.6,1008.8,353.3,1009z"/>
		<path fill="none" d="M358.7,1007.2c0.3-0.1,0.6-0.1,0.9-0.2C359.3,1007,359,1007.1,358.7,1007.2z"/>
		<path fill="none" d="M337.7,1025.9c0.4-1.2,0.9-2.4,1.5-3.6C338.7,1023.5,338.2,1024.6,337.7,1025.9z"/>
		<path fill="none" d="M356.1,1007.9c0.3-0.1,0.6-0.2,0.9-0.3C356.7,1007.7,356.4,1007.8,356.1,1007.9z"/>
		<path fill="none" d="M337.1,1027.8c0.1-0.5,0.3-1,0.5-1.6C337.4,1026.8,337.3,1027.3,337.1,1027.8z"/>
		<path fill="none" d="M350.5,1010.4c0.3-0.2,0.7-0.4,1-0.6C351.2,1010,350.9,1010.2,350.5,1010.4z"/>
		<path fill="none" d="M342,1017.9c0.3-0.4,0.6-0.8,1-1.2C342.7,1017,342.4,1017.4,342,1017.9z"/>
		<path fill="none" d="M348.3,1011.8c0.3-0.2,0.7-0.5,1-0.7C349,1011.3,348.7,1011.5,348.3,1011.8z"/>
		<path fill="none" d="M340.6,1019.9c0.3-0.5,0.6-0.9,0.9-1.3C341.2,1019,340.9,1019.4,340.6,1019.9z"/>
		<path fill="none" d="M339.4,1022c0.3-0.5,0.6-1,0.8-1.5C339.9,1021,339.6,1021.5,339.4,1022z"/>
		<path fill="none" d="M346.3,1013.3c0.3-0.3,0.7-0.6,1-0.8C347,1012.8,346.7,1013,346.3,1013.3z"/>
		<path fill="none" d="M336.6,1030.1c0.1-0.5,0.2-0.9,0.3-1.4C336.8,1029.2,336.7,1029.7,336.6,1030.1z"/>
		<path fill="none" d="M336.3,1032.6c0-0.4,0.1-0.7,0.1-1.1C336.3,1031.9,336.3,1032.3,336.3,1032.6z"/>
		<path fill="none" d="M345.5,1014c-0.7,0.6-1.4,1.3-2,2C344.2,1015.3,344.8,1014.7,345.5,1014z"/>
		<path fill="none" d="M361.4,1006.7c0.3,0,0.6-0.1,0.8-0.1C362,1006.6,361.7,1006.7,361.4,1006.7z"/>
		<path fill="#E6E7E8" d="M362.2,1006.6c-0.3,0-0.6,0.1-0.8,0.1c-0.6,0.1-1.2,0.2-1.8,0.3c-0.3,0.1-0.6,0.1-0.9,0.2
			c-0.6,0.1-1.1,0.3-1.7,0.4c-0.3,0.1-0.6,0.2-0.9,0.3c-0.7,0.2-1.4,0.5-2,0.7c-0.3,0.1-0.5,0.2-0.8,0.3c-0.6,0.3-1.2,0.5-1.8,0.9
			c-0.3,0.2-0.7,0.4-1,0.6c-0.4,0.2-0.8,0.5-1.2,0.7c-0.4,0.2-0.7,0.5-1,0.7c-0.3,0.2-0.7,0.5-1,0.7c-0.3,0.3-0.7,0.5-1,0.8
			c-0.3,0.2-0.5,0.5-0.8,0.7c-0.7,0.6-1.4,1.3-2,2c-0.2,0.2-0.4,0.4-0.5,0.6c-0.3,0.4-0.7,0.8-1,1.2c-0.1,0.1-0.2,0.3-0.3,0.4H729
			v-2.9v-8.9H364.9C364,1006.5,363.1,1006.5,362.2,1006.6z"/>
		<path fill="#FFFFFF" d="M341.5,1018.5c-0.3,0.4-0.6,0.9-0.9,1.3c-0.1,0.2-0.3,0.5-0.4,0.7c-0.3,0.5-0.6,1-0.8,1.5
			c0,0.1-0.1,0.2-0.1,0.3c-0.6,1.1-1.1,2.3-1.5,3.6c0,0.1-0.1,0.2-0.1,0.4c-0.2,0.5-0.3,1-0.5,1.6c-0.1,0.3-0.2,0.6-0.3,1
			c-0.1,0.5-0.2,0.9-0.3,1.4c-0.1,0.5-0.2,1-0.2,1.4c0,0.4-0.1,0.7-0.1,1.1c-0.1,0.9-0.1,1.8-0.1,2.6v3.6
			c0,15.9,12.9,28.8,28.8,28.8H729v-49.5H341.7C341.7,1018.4,341.6,1018.4,341.5,1018.5z"/>
		<path fill="#00ACB5" d="M321.7,1038.9v-3.6c0-23.9,19.4-43.2,43.2-43.2h-63h-31.9h-21.6c-23.9,0-43.2,19.4-43.2,43.2v3.6
			c0,23.9,19.4,43.2,43.2,43.2h21.6H302h63C341.1,1082.1,321.7,1062.8,321.7,1038.9z"/>
		<path fill="#009DA6" d="M364.9,1067.7c-15.9,0-28.8-12.9-28.8-28.8v-3.6c0-0.9,0-1.8,0.1-2.6c0-0.4,0.1-0.7,0.1-1.1
			c0.1-0.5,0.1-1,0.2-1.4c0.1-0.5,0.2-0.9,0.3-1.4c0.1-0.3,0.2-0.7,0.3-1c0.1-0.5,0.3-1,0.5-1.6c0,0,0,0,0-0.1
			c0-0.1,0.1-0.2,0.1-0.3c0.4-1.2,0.9-2.4,1.5-3.6c0-0.1,0.1-0.2,0.1-0.3c0.3-0.5,0.6-1,0.8-1.5c0.1-0.2,0.3-0.5,0.4-0.7
			c0.3-0.5,0.6-0.9,0.9-1.3c0.1-0.1,0.1-0.2,0.2-0.3h-5.6h5.6c0.1-0.1,0.2-0.3,0.3-0.4c0.3-0.4,0.6-0.8,1-1.2
			c0.2-0.2,0.4-0.4,0.5-0.6c0.6-0.7,1.3-1.4,2-2c0.3-0.2,0.5-0.5,0.8-0.7c0.3-0.3,0.7-0.5,1-0.8c0.3-0.2,0.6-0.5,1-0.7
			c0.3-0.2,0.7-0.5,1-0.7c0.4-0.3,0.8-0.5,1.2-0.7c0.3-0.2,0.6-0.4,1-0.6c0.6-0.3,1.2-0.6,1.8-0.9c0.3-0.1,0.5-0.2,0.8-0.3
			c0.7-0.3,1.3-0.5,2-0.7c0.3-0.1,0.6-0.2,0.9-0.3c0.6-0.2,1.1-0.3,1.7-0.4c0.3-0.1,0.6-0.1,0.9-0.2c0.6-0.1,1.2-0.2,1.8-0.3
			c0.3,0,0.6-0.1,0.8-0.1c0.9-0.1,1.8-0.1,2.7-0.1H729h13.1v-6.2v-8v-0.2h-3.6H729h-12.2H364.9c-23.9,0-43.2,19.4-43.2,43.2v3.6
			c0,23.9,19.4,43.2,43.2,43.2h351.9H729h9.5h3.6v-0.2v-8v-6.2H729H364.9z"/>
		<path fill="#009DA6" d="M336.4,1031.6c0.1-0.5,0.1-1,0.2-1.4C336.5,1030.6,336.4,1031.1,336.4,1031.6z"/>
		<path fill="#009DA6" d="M339.2,1022.3c0-0.1,0.1-0.2,0.1-0.3C339.3,1022.1,339.3,1022.2,339.2,1022.3z"/>
		<path fill="#009DA6" d="M337.6,1026.2C337.6,1026.2,337.6,1026.2,337.6,1026.2c0-0.1,0.1-0.2,0.1-0.3
			C337.7,1026,337.6,1026.1,337.6,1026.2z"/>
		<path fill="#009DA6" d="M336.9,1028.8c0.1-0.3,0.2-0.7,0.3-1C337.1,1028.1,337,1028.4,336.9,1028.8z"/>
		<path fill="#009DA6" d="M336.1,1035.3c0-0.9,0-1.8,0.1-2.6C336.2,1033.5,336.1,1034.4,336.1,1035.3z"/>
		<path fill="#009DA6" d="M340.2,1020.5c0.1-0.2,0.3-0.5,0.4-0.7C340.5,1020.1,340.4,1020.3,340.2,1020.5z"/>
		<path fill="#009DA6" d="M345.5,1014c0.3-0.2,0.5-0.5,0.8-0.7C346,1013.6,345.8,1013.8,345.5,1014z"/>
		<path fill="#009DA6" d="M362.2,1006.6c0.9-0.1,1.8-0.1,2.7-0.1C364,1006.5,363.1,1006.5,362.2,1006.6z"/>
		<path fill="#009DA6" d="M359.6,1007c0.6-0.1,1.2-0.2,1.8-0.3C360.8,1006.8,360.2,1006.9,359.6,1007z"/>
		<path fill="#009DA6" d="M343,1016.6c0.2-0.2,0.4-0.4,0.5-0.6C343.4,1016.2,343.2,1016.4,343,1016.6z"/>
		<path fill="#009DA6" d="M357,1007.6c0.6-0.2,1.1-0.3,1.7-0.4C358.1,1007.3,357.5,1007.4,357,1007.6z"/>
		<path fill="#009DA6" d="M341.7,1018.3c-0.1,0.1-0.1,0.2-0.2,0.3C341.6,1018.4,341.7,1018.4,341.7,1018.3L341.7,1018.3z"/>
		<path fill="#009DA6" d="M342,1017.9c-0.1,0.1-0.2,0.3-0.3,0.4h0C341.8,1018.1,341.9,1018,342,1017.9z"/>
		<path fill="#009DA6" d="M354.1,1008.6c0.7-0.3,1.3-0.5,2-0.7C355.4,1008.1,354.8,1008.3,354.1,1008.6z"/>
		<path fill="#009DA6" d="M349.4,1011.1c0.4-0.3,0.8-0.5,1.2-0.7C350.1,1010.6,349.7,1010.8,349.4,1011.1z"/>
		<path fill="#009DA6" d="M347.4,1012.5c0.3-0.2,0.6-0.5,1-0.7C348,1012,347.7,1012.3,347.4,1012.5z"/>
		<path fill="#009DA6" d="M351.5,1009.8c0.6-0.3,1.2-0.6,1.8-0.9C352.7,1009.2,352.1,1009.5,351.5,1009.8z"/>
	</g>
	<g>
		<path fill="#E6E7E8" d="M634.8,1117.4c0-8,2.8-15.2,7.3-21.2h-23.5H328.4c-11.7,0-21.2,9.5-21.2,21.2v2.6h327.6V1117.4z"/>
		<path fill="#FFFFFF" d="M634.8,1120H307.3v60.9c0,11.7,9.5,21.2,21.2,21.2h290.2h23.5c-4.5-5.9-7.3-13.2-7.3-21.2V1120z"/>
	</g>
	<g>
		<path fill="#E6E7E8" d="M650.8,1230.6H286.7v11v1.6h387.9C669.4,1235.6,660.6,1230.6,650.8,1230.6z"/>
		<path fill="#FFFFFF" d="M286.7,1243.2v55.8h364.1c15.9,0,28.8-12.9,28.8-28.8v-7.9v-2.9c0-6-1.8-11.6-5-16.2H286.7z"/>
	</g>
	<g>
		<path fill="#E6E7E8" d="M910.8,1329.7h-80.1H463.7c-7.2,0-13.6,3.7-17.2,9.3h464.3V1329.7z"/>
		<path fill="#FFFFFF" d="M446.5,1339c-2.1,3.3-3.4,7.1-3.4,11.3c0,11.4,9.3,20.6,20.6,20.6h366.9h80.1V1339H446.5z"/>
	</g>
	<g>
		<path fill="#E05D4A" d="M1238.4,1388.1h-7h-9.1H876.7c-17.8,0-32.3,14.4-32.3,32.3v0.3v2.4c0,17.8,14.4,32.3,32.3,32.3h345.5h9.1
			h7h2.7v-0.1v-6v-4.7h-9.7H876.7c-11.9,0-21.5-9.7-21.5-21.5v-2.4v-0.3c0-0.7,0-1.3,0.1-2c0-0.3,0.1-0.5,0.1-0.8
			c0-0.4,0.1-0.7,0.2-1.1c0.1-0.3,0.1-0.7,0.2-1c0.1-0.2,0.1-0.5,0.2-0.7c0.1-0.4,0.2-0.8,0.3-1.2c0,0,0,0,0,0
			c0-0.1,0.1-0.2,0.1-0.2c0.3-0.9,0.7-1.8,1.1-2.7c0-0.1,0.1-0.1,0.1-0.2c0.2-0.4,0.4-0.7,0.6-1.1c0.1-0.2,0.2-0.3,0.3-0.5
			c0.2-0.3,0.4-0.7,0.7-1c0.1-0.2,0.3-0.3,0.4-0.5c0.2-0.3,0.5-0.6,0.7-0.9c0.1-0.1,0.3-0.3,0.4-0.4c0.5-0.5,1-1,1.5-1.5
			c0.2-0.2,0.4-0.4,0.6-0.5c0.3-0.2,0.5-0.4,0.8-0.6c0.2-0.2,0.5-0.4,0.7-0.5c0.3-0.2,0.5-0.4,0.8-0.5c0.3-0.2,0.6-0.4,0.9-0.5
			c0.2-0.1,0.5-0.3,0.7-0.4c0.4-0.2,0.9-0.4,1.3-0.6c0.2-0.1,0.4-0.2,0.6-0.3c0.5-0.2,1-0.4,1.5-0.6c0.2-0.1,0.4-0.1,0.7-0.2
			c0.4-0.1,0.8-0.2,1.2-0.3c0.2-0.1,0.5-0.1,0.7-0.1c0.4-0.1,0.9-0.1,1.3-0.2c0.2,0,0.4-0.1,0.6-0.1c0.7-0.1,1.3-0.1,2-0.1h354.6
			h9.7v-4.7v-6v-0.1H1238.4z"/>
		<path fill="#FF6954" d="M844.5,963.9v2.7v453.8c0-17.8,14.4-32.3,32.3-32.3V931.6C858.9,931.6,844.5,946.1,844.5,963.9z"/>
		<polygon fill="#FF6954" points="1238.4,931.6 1231.3,931.6 1222.2,931.6 887.1,931.6 887.1,1388.1 1222.2,1388.1 1231.3,1388.1 
			1238.4,1388.1 1241.1,1388.1 1241.1,998.8 1241.1,998.7 1241.1,992.7 1241.1,988.1 1241.1,942.4 1241.1,937.7 1241.1,931.8 
			1241.1,931.6 		"/>
		<rect x="876.7" y="931.6" fill="#E05D4A" width="10.3" height="456.5"/>
		<rect x="983.4" y="999.4" fill="#FFFFFF" width="161.2" height="88.5"/>
		<rect x="934.4" y="1120" fill="#E05D4A" width="259.4" height="20.3"/>
		<rect x="934.4" y="1165.9" fill="#E05D4A" width="259.4" height="20.3"/>
		<rect x="934.4" y="1211.7" fill="#E05D4A" width="259.4" height="20.3"/>
		<g>
			<path fill="#E6E7E8" d="M1231.3,1405.5v-6.7H876.7c-0.7,0-1.3,0-2,0.1c-0.2,0-0.4,0-0.6,0.1c-0.5,0.1-0.9,0.1-1.3,0.2
				c-0.2,0-0.5,0.1-0.7,0.1c-0.4,0.1-0.8,0.2-1.2,0.3c-0.2,0.1-0.4,0.1-0.7,0.2c-0.5,0.2-1,0.4-1.5,0.6c-0.2,0.1-0.4,0.2-0.6,0.3
				c-0.5,0.2-0.9,0.4-1.3,0.6c-0.3,0.1-0.5,0.3-0.7,0.4c-0.3,0.2-0.6,0.3-0.9,0.5c-0.3,0.2-0.5,0.3-0.8,0.5
				c-0.3,0.2-0.5,0.4-0.7,0.5c-0.3,0.2-0.5,0.4-0.8,0.6c-0.2,0.2-0.4,0.3-0.6,0.5c-0.5,0.5-1,1-1.5,1.5c-0.1,0.1-0.3,0.3-0.4,0.4
				c-0.3,0.3-0.5,0.6-0.7,0.9c-0.1,0.2-0.3,0.3-0.4,0.5c-0.2,0.3-0.5,0.7-0.7,1c-0.1,0.1-0.2,0.3-0.3,0.4h373V1405.5z"/>
			<path fill="#FFFFFF" d="M858.3,1409.3C858.3,1409.3,858.3,1409.3,858.3,1409.3c-0.3,0.4-0.5,0.8-0.7,1.2c0,0.1-0.1,0.2-0.1,0.2
				c-0.4,0.9-0.8,1.7-1.1,2.7c0,0.1-0.1,0.2-0.1,0.3c-0.1,0.4-0.2,0.8-0.3,1.2c-0.1,0.2-0.1,0.5-0.2,0.7c-0.1,0.3-0.1,0.7-0.2,1
				c-0.1,0.4-0.1,0.7-0.2,1.1c0,0.3-0.1,0.5-0.1,0.8c-0.1,0.7-0.1,1.3-0.1,2v0.3v2.4c0,11.9,9.7,21.5,21.5,21.5h354.6v-23.9v-11.4
				H858.3z"/>
		</g>
	</g>
	<path fill="#D1D3D4" d="M549.8,859.9c0,3.5-2.8,6.3-6.3,6.3H470c-3.5,0-6.3-2.8-6.3-6.3l0,0c0-3.5,2.8-6.3,6.3-6.3h73.4
		C546.9,853.6,549.8,856.4,549.8,859.9L549.8,859.9z"/>
	<polygon fill="#FF6954" points="476.8,853.6 476.8,872.5 476.8,926.1 506.7,902.8 536.7,926.1 536.7,886.6 536.7,853.6 	"/>
	<path fill="#D1D3D4" d="M422.1,1181.7c0,3.5-2.8,6.3-6.3,6.3h-73.4c-3.5,0-6.3-2.8-6.3-6.3l0,0c0-3.5,2.8-6.3,6.3-6.3h73.4
		C419.3,1175.4,422.1,1178.2,422.1,1181.7L422.1,1181.7z"/>
	<polygon fill="#00ACB5" points="349.2,1175.4 349.2,1194.4 349.2,1248 379.1,1224.6 409.1,1248 409.1,1208.4 409.1,1175.4 	"/>
</g>
</svg>
